<svg xmlns="http://www.w3.org/2000/svg" version="1.1" xmlns:xlink="http://www.w3.org/1999/xlink" xmlns:svgjs="http://svgjs.dev/svgjs" width="82" height="85"><svg viewBox="0 0 82 85" xmlns="http://www.w3.org/2000/svg" xmlns:svg="http://www.w3.org/2000/svg" enable-background="new 0 0 82 85" version="1.1" xml:space="preserve">
<style type="text/css">
.st0{fill:#29CE60;}
.st1{fill:#FFFFFF;}
</style>
<g id="SvgjsG1294">
    <path class="st0" d="m80.06,25.53c6.34,20 -4.73,41.36 -24.74,47.7c0,0 0,0 -0.01,0l-0.03,0c-0.78,0.24 -1.5,0.67 -2.1,1.23c-2.05,2.07 -2.04,5.41 0.03,7.46c0.08,0.08 0.16,0.15 0.24,0.22c0,0 2.86,3.21 2.85,3.21c-20.59,1.09 -47.42,-9.53 -54.34,-31.39s5.05,-43.69 27.03,-52.11l2.39,-0.76c0.65,-0.21 1.31,-0.38 1.98,-0.5c17.66,-2.98 40.48,5.31 46.7,24.94" id="SvgjsPath1293"></path>
    <path class="st1" d="m68.66,42.83l0,3.73c-0.06,1.78 -0.92,3.44 -2.34,4.51c-12.97,10.65 -29.71,12.86 -46.33,0.66l-4.78,4.83l-3.87,-17.49l17.54,3.68l-5.46,5.52c15.69,11.5 30.66,7.87 45.11,-5.49c0.03,-0.03 0.08,-0.03 0.11,0c0,0.02 0.02,0.03 0.02,0.05z" id="SvgjsPath1292"></path>
</g>
</svg><style>@media (prefers-color-scheme: light) { :root { filter: none; } }
@media (prefers-color-scheme: dark) { :root { filter: none; } }
</style></svg>